<svg xmlns="http://www.w3.org/2000/svg" width="500" height="500" version="1.0" viewBox="0 0 375 375"><path fill-rule="evenodd" d="M204.102 41.145c-2.243.671-5.856 2.925-8.028 5.007-3.879 3.72-4.023 3.743-7.734 1.313-3.184-2.086-4.61-2.227-9.04-.899-2.894.864-6.019 2.485-6.945 3.602-1.449 1.742-2.46 1.617-7.32-.914-5.367-2.8-5.875-2.828-10.492-.625-2.672 1.273-7.398 2.312-10.508 2.312-5.144 0-5.836.45-7.742 5.004-1.793 4.297-2.527 4.844-5.203 3.867-4.793-1.742-15.723-.894-20.543 1.598-4.508 2.332-8.602 8.582-8.602 13.137 0 1.45-1.547 4.094-3.441 5.871-2.156 2.023-3.602 5.144-3.871 8.336l-.426 5.101-8.441.81c-10.301.98-14.344 2.628-19.258 7.843-5.008 5.316-7.031 11.043-5.945 16.832.683 3.64.355 4.941-1.415 5.62-1.265.485-4.027 3.817-6.132 7.4-3.211 5.468-3.836 8.167-3.848 16.71-.012 10.184-.02 10.2-5.238 13.746-7.457 5.067-8.528 7.82-7.41 18.98.816 8.114.5 10.599-2.09 16.388-3.508 7.836-5.043 19-3.64 26.468.542 2.891 3.112 7.524 5.858 10.563 2.692 2.98 6.747 9.12 9.008 13.648 4.465 8.934 9.766 13.13 16.598 13.13 2.969 0 4.898 1.073 6.601 3.675 2.098 3.203 3.082 3.566 7.653 2.836 4.652-.742 5.594-.363 8.347 3.36 3.641 4.925 7.907 5.386 12.23 1.324 2.583-2.426 3.606-2.622 6.595-1.262 2.597 1.183 4.312 1.199 6.437.058 1.594-.851 4.824-1.55 7.18-1.55 3.277 0 4.758.937 6.348 4.011 1.144 2.207 3.69 5.07 5.668 6.364 1.972 1.296 3.585 3.32 3.585 4.5 0 4.703 4.282 10.253 9.149 11.859 3.101 1.023 5.773 3.191 7.11 5.773 3.284 6.352 12.706 12.516 19.128 12.516 3 0 5.418.691 5.418 1.547 0 3.965 4.8 11.016 8.559 12.57 5.11 2.117 15.71 2.024 19.816-.172 2.434-1.3 3.371-1.226 4.578.364 4.922 6.488 14.848 8.664 21.84 4.796 2.274-1.265 6.106-1.664 11.36-1.187 7.355.668 8.285.402 12.93-3.676 3.35-2.937 6.48-4.39 9.456-4.39 5.707 0 10.86-5.051 12.145-11.907.675-3.609 1.96-5.558 4.226-6.422 1.793-.68 3.953-2.535 4.801-4.117.926-1.73 2.953-2.883 5.074-2.883 3.89 0 10.438-5.675 10.438-9.054 0-1.18 1.742-2.563 3.87-3.07 5.806-1.391 7.388-3.208 7.388-8.504 0-2.7 1.312-6.586 2.992-8.864 2.066-2.793 2.722-5.14 2.113-7.566-1.488-5.934.274-8.324 5.422-7.36 3.316.622 5.469.094 8.117-1.988 1.985-1.562 4.93-2.84 6.55-2.84 5.063 0 8.571-4.906 8.571-11.984 0-4.879-1.676-9.633-7.187-20.406l-7.188-14.051.988-15.133c.868-13.3.633-16.133-1.933-23.441-1.606-4.567-5.438-11.297-8.516-14.946-6.418-7.609-8.625-12.164-12.613-26.023-5.484-19.059-16.867-32.332-39.746-46.344-9.793-5.996-11.762-7.836-12.836-11.996-1.672-6.465-3.39-8.383-10.25-11.426-3.14-1.394-6.86-3.8-8.258-5.343-2.867-3.168-11.285-6.375-13.363-5.09-.754.465-3.762-.442-6.692-2.012-5.828-3.121-6.296-3.176-12.253-1.394m-1.536 7.335c-2.007 1.743-4.52 5.7-5.574 8.793-1.508 4.418-2.633 5.63-5.219 5.63-2.527 0-3.398-.88-3.73-3.77-.996-8.602-10.137-8.926-12.934-.453-2.199 6.664-7.093 6.836-9.945.351-1.5-3.402-2.914-4.57-5.531-4.57-2.766 0-3.61.8-3.953 3.766-.817 7.062-8.032 8.746-8.98 2.093-.24-1.675-1.384-3.047-2.544-3.047-2.097 0-2.433 2.832-1.242 10.497.758 4.882-2.89 5.207-9.34.832-7.648-5.192-16.383-4.985-21.887.523-4.53 4.531-4.933 6.79-2.437 13.691 2.055 5.68.844 7.184-3.785 4.707-1.934-1.035-3.91-1.484-4.395-1-1.62 1.622.77 5.25 4.356 6.614 2.187.832 3.554 2.449 3.554 4.199 0 3.117-1.605 3.383-17.585 2.941-10.352-.289-19.754 4-23.645 10.778-3.64 6.347-1.68 8.625 3.313 3.84 4.585-4.395 8.832-3.856 8.117 1.027-.278 1.914-3.907 5.547-9.555 9.574-9.75 6.942-13.344 11.766-14.832 19.895-.773 4.234-.375 5.625 2.32 8.136 4.098 3.817 2.871 6.149-6.511 12.364-3.735 2.472-7.266 5.27-7.848 6.21-.578.942-.719 6.2-.309 11.68.575 7.645.18 11.285-1.699 15.598-3.402 7.824-5.96 20.437-4.973 24.52 1.18 4.87 4 5.206 5.72.683 4.433-11.66 16.835-9.133 16.835 3.438 0 3.625-1.16 5.89-4.738 9.27l-4.742 4.468 2.597 5.066c3.52 6.86 9.453 11.492 12.008 9.375 1.05-.87 1.91-3.015 1.91-4.762 0-1.742.985-3.984 2.184-4.98 1.793-1.488 2.555-1.434 4.293.3 1.719 1.723 1.805 2.794.453 5.759-1.95 4.277-.68 10.882 2.094 10.882 2.332 0 3.64-3.046 3.64-8.472 0-4.528 1.5-6.012 4.797-4.746 1.356.52 2.239 2.515 2.239 5.066 0 5.242 3.93 13.781 6.34 13.781 2.19 0 2.995-1.945 4.245-10.277 1.543-10.3 6.457-9.836 8.442.797 1.664 8.91 4.742 8.91 6.191 0 .656-4.05 1.512-5.293 3.649-5.293 2.136 0 2.707.824 2.43 3.516-.45 4.367 1.82 8.289 3.656 6.32.714-.766 1.71-4.285 2.214-7.817.766-5.382.45-6.843-1.945-9.011-3.426-3.102-3.82-12.266-.75-17.63 3.074-5.378 2.52-11.741-2.25-25.823-10.62-31.38-9.836-46.746 3.457-67.532 11.442-17.882 13.211-25.672 8.133-35.797-2.98-5.94-2.566-8.734 1.3-8.734 4.227 0 8.919 10.442 8.848 19.695-.058 8.204-2.832 15.036-10.824 26.7-6.914 10.093-10.707 20.793-10.734 30.285-.028 9.3.828 13.238 7.254 33.324l4.355 13.625 5.078-4.066c12.024-9.63 37.7-18.29 54.063-18.235 15.707.051 34.082 6.13 44.144 14.598l4.184 3.52 4.812-7.313c10.47-15.922 31.48-21.926 49.864-14.246 2.496 1.043 4.933 1.5 5.418 1.015 1.726-1.73.843-13.253-1.41-18.398-1.5-3.418-2.625-11.563-3.25-23.523l-.954-18.29-6.734-12.351c-6.398-11.727-7.371-16.523-3.348-16.465 2.211.027 14.422 22.719 15.891 29.512.582 2.703 1.148 10.933 1.258 18.289.144 9.797.816 14.316 2.512 16.894 4.14 6.29 5.691 15.012 4.035 22.73-1.383 6.454-1.235 7.34 1.914 11.477 7.289 9.582 9.953 25.184 5.699 33.41-2.617 5.063-1.367 8.012 5.676 13.383 5.715 4.36 9.972 3.778 8.562-1.171-2.547-8.942-2.605-10.887-.32-10.887 1.27 0 3.191 2.21 4.371 5.035 2.5 5.988 6.316 6.086 8.383.215 1.16-3.301.39-5.77-5.246-16.871-10.371-20.414-11.125-23.41-9.258-36.774 1.469-10.531 1.355-12.015-1.492-19.476-1.7-4.446-5.578-11.399-8.625-15.45-5.512-7.335-7.36-11.53-11.703-26.566-1.254-4.336-4.743-11.7-7.762-16.367-5.48-8.48-11.934-13.617-38.145-30.379-7.433-4.75-8.418-5.914-8.418-9.918 0-4.05-2.03-7.922-4.148-7.914-.426.004-.848 2.02-.938 4.484-.324 8.844-12.48 14.418-18.042 8.27-3.395-3.75-1.72-10.578 3.554-14.477 4.84-3.578 5.192-6.039 1.176-8.187-3.977-2.13-7.184-.625-6.871 3.219.734 9.074-2.848 13.722-10.574 13.722-6.711 0-10.305-5.136-7.813-11.16.938-2.262 2.899-5.191 4.356-6.512 5.562-5.03-.657-6.656-6.407-1.672m9.91 6.997c-3.003 4.285-2.75 5.59.973 5.062 2.27-.324 3.293-1.55 3.613-4.32.536-4.672-1.593-5.016-4.585-.742m20.539 8.566c-2.332 2.812-1.653 5.555.972 3.922 1.047-.649 1.68-2.309 1.41-3.692-.449-2.304-.648-2.32-2.382-.23m16.695 66.75c-5.703 2.863-11.586 10.926-10.992 15.066.629 4.407 4.773 3.418 8.433-2.02 3.52-5.218 10.153-9.765 11.82-8.097.555.555-.16 2.301-1.585 3.875-2.422 2.68-2.438 3.024-.242 5.219 2.195 2.195 2.554 2.133 5.425-.953 3.012-3.227 3.102-3.238 4.121-.48.575 1.554 2.047 3.206 3.274 3.679 1.226.473 2.226 1.523 2.226 2.344 0 .988-2.992 1.183-8.875.582-7.41-.758-9.828-.422-14.652 2.039-6.8 3.469-12.027 10.168-11.39 14.61.597 4.195 5.32 5.081 6.34 1.187 1.034-3.953 2.753-3.703 3.823.558 1.188 4.727 8.348 8.282 14.622 7.262 5.359-.867 11.543-5.773 11.543-9.16 0-1.703.37-1.625 1.851.398 2.461 3.368 7.172 2.34 7.746-1.691.309-2.16-.941-4.414-3.867-6.984-4.824-4.23-5.324-6.215-2.215-8.793 2.692-2.239 2.719-7.692.051-10.102-6.965-6.281-15.215-11.004-19.211-11.004-1.844 0-5.555 1.11-8.246 2.465m-82.39 5.941c-1.575.621-3.708 2.149-4.743 3.395-1.035 1.246-3.863 2.27-6.281 2.273-5.64.008-13.012 4.493-14.285 8.692-.543 1.793-2.485 4.867-4.32 6.832-4.395 4.703-5.766 11.457-2.82 13.902 3.148 2.613 6.19.95 6.722-3.672.336-2.93 1.32-4.074 3.808-4.426l3.356-.476-3.004 4.863c-1.652 2.676-3.004 6.211-3.004 7.863 0 4.254 5.246 3.965 7.234-.398l1.547-3.398 5.422 5.699c5.02 5.273 5.848 5.64 11.195 4.922 6.559-.88 10.727-4.032 13.43-10.157 1.027-2.324 1.887-3.476 1.918-2.562.031.91 1.074 2.676 2.316 3.918 1.743 1.742 2.708 1.887 4.22.629 6.956-5.774-6.098-18.164-19.137-18.164-5.375 0-5.633-.184-4.16-2.938.863-1.613 1.222-3.277.8-3.703-1.418-1.418 2.02-6.023 4.496-6.023 4.067 0 8.59 4.074 9.828 8.855.809 3.121 2.008 4.512 3.895 4.512 2.277 0 2.703-.965 2.605-5.902-.062-3.25-.964-6.93-2.004-8.184-4.003-4.82-14.238-8.234-19.03-6.352m-12.618 13.797c-4.816 1.043-6.441 3.102-4.828 6.114.793 1.48 1.059 3.316.59 4.074-1.27 2.058 1.215 1.66 4.324-.688 1.5-1.14 3.836-2.09 5.191-2.113 3.078-.055 3.07-1.348-.03-5.078-1.466-1.762-3.548-2.68-5.247-2.309m107.106 12.617c1.148 4.797 1.386 5.082 3.25 3.93.828-.512 1.503-2.473 1.503-4.363 0-2.508-.77-3.434-2.843-3.434-2.383 0-2.692.617-1.91 3.867m-91.196 7.57c.617 4.22.79 4.345 2.598 1.876 2.262-3.098 1.816-5.406-1.153-5.985-1.625-.316-1.957.625-1.445 4.11m89.617 26.07c-8.914 4.691-16.18 13.793-16.18 20.262 0 2.668.47 2.89 3.868 1.828 2.129-.664 10.203-1.195 17.941-1.184 16.16.032 23.106 2.403 32.871 11.227 7.254 6.55 10.047 5.879 10.028-2.414-.028-12.13-8.98-25.086-20.73-29.992-6.544-2.739-22.376-2.578-27.798.273m-86.53 5.473c-21.345 4.566-37.349 13.883-44.673 26.008-4.511 7.464-5.836 12.617-3.246 12.617.73 0 2.45-1.899 3.82-4.223 2.7-4.57 4.887-5.277 7.305-2.363 1.153 1.39.528 3.957-2.492 10.203-2.219 4.59-4.828 11.953-5.797 16.363-1.559 7.07-1.484 8.445.613 11.653 1.313 1.996 2.93 3.293 3.598 2.882.668-.414 2.293-4.18 3.61-8.37 3.12-9.915 17.68-28.387 28.867-36.622 9.222-6.789 20.242-11.457 32.3-13.687 8.27-1.532 27.036-.973 31.672.941 2.559 1.059 2.52.84-.426-2.398-4.917-5.403-15.996-10.86-26.617-13.114-11.578-2.449-16.644-2.43-28.535.11m20.188 23.043c-13.551 3.664-20.657 7.5-29.641 16-8.848 8.367-20.59 23.789-23.605 31.004-3.036 7.265-2.739 15.418.671 18.503 2.282 2.063 3.176 2.2 4.922.75 1.18-.976 2.164-2.804 2.196-4.066.03-1.258 2.175-7.672 4.765-14.25 4.77-12.117 14.442-25.324 18.551-25.324 4.156 0 3.578 4.117-1.164 8.277-8.16 7.164-17.988 28.617-17.988 39.262 0 3.797 1.14 5.965 5.09 9.691 2.8 2.641 5.808 4.563 6.683 4.274.899-.297 2.004-5.45 2.54-11.793 1.023-12.219 5.816-28.188 12.347-41.125 9.23-18.281 28.512-28.715 48.074-26.012 10.477 1.445 10.969.57 2.203-3.922-8.3-4.254-22.707-4.77-35.644-1.27m-146.52.372c-2 1.996-2.3 8.176-.398 8.176 2.27 0 5.886-4.473 5.445-6.739-.559-2.879-2.93-3.554-5.047-1.437m203.367.02c-5.41 1.433-6.683 3.831-3.457 6.507 1.313 1.09 3.957.883 9.496-.742 13.301-3.906 25.457.691 46.914 17.742 3.008 2.39 6.016 4.348 6.684 4.348 2.477 0 1.02-5.063-2.691-9.356-13.747-15.898-37.59-23.64-56.946-18.5m-42.082 13.75c-4.566 1.38-16.48 9.422-19.77 13.348-3.57 4.262-10.37 17.43-12.894 24.969-3.41 10.187-5.504 25.195-3.762 26.933 2.286 2.29 4.704-2.101 9.856-17.906 9.672-29.664 19.289-42.101 36.64-47.402 3.141-.957 2.993-1.07-1.406-1.07-2.707 0-6.61.507-8.664 1.128m43.324.75c-4.238 4.239-.605 5.598 7.333 2.746 6.632-2.386 7.359-2.394 13.226-.156 7.84 2.992 13.566 7.195 24.563 18.008 8.562 8.418 13.082 10.027 13.082 4.668 0-4.195-2.832-7.563-11.63-13.813-15.667-11.136-18.913-12.476-32.062-13.238-10.215-.59-12.406-.32-14.512 1.785m-31.144 5.442c-17.258 5.558-25.402 15.64-33.672 41.68-2.09 6.578-5.086 14.671-6.668 17.988-3.59 7.539-2.605 14.441 2.64 18.574 2.04 1.601 4.368 2.691 5.18 2.422.809-.274 2.34-6.781 3.403-14.461 2.351-17.012 7.21-32.149 13.43-41.875 6.609-10.328 18.062-20.242 24.984-21.625 3.094-.617 5.75-1.754 5.902-2.528.422-2.12-8.824-2.23-15.2-.175m56.716 9.93c2.336 2.66 4.676 6.195 5.203 7.863 2.558 8.054-4.961 22.386-15.117 28.808-6.278 3.973-6.348 4.106-7.223 13.504-1.02 10.957-.258 13.938 3.559 13.938 4.14 0 7.316-8.797 6.203-17.18-.723-5.45-.488-6.738 1.215-6.738 1.16 0 2.796 1.281 3.636 2.851 2.344 4.38 4.621 1.754 3.668-4.222-1.11-6.938.23-7.891 4.871-3.446 2.102 2.016 4.997 3.446 6.426 3.176 3.559-.676 4.184-8.375 1.07-13.129-1.808-2.758-2.003-4.066-.789-5.281 1.211-1.215 2.766-.496 6.254 2.887 2.555 2.476 5.336 4.5 6.184 4.5 2.687 0 3.121-3.778.828-7.227-3.488-5.25-14.64-16.633-20.652-21.078-7.719-5.707-10.653-5.281-5.336.773m-61.153 8.536c-10.265 10.714-16.171 24.894-19.375 46.527-1.796 12.125-1.593 14.68 1.176 14.68 5.625 0 11.774-13.254 16.32-35.176 3.45-16.637 5.368-23.54 7.918-28.492 2.872-5.582.895-4.778-6.039 2.46m50.45 13.649c-2.254 2.25-2.157 6.754.14 6.754 2.61 0 5.203-2.945 5.203-5.91 0-2.89-2.847-3.344-5.343-.844m-31.239 7.23c0 2.793 7.055 5.704 9.008 3.72 1.13-1.145.805-2.118-1.183-3.587-3.442-2.539-7.825-2.613-7.825-.133m-15.976 5.965c-.485 3.54-2.785 12.125-5.113 19.075-2.329 6.949-4.235 13.449-4.235 14.445 0 2.789 4.727 6.426 8.79 6.762 9.28.77 17.038-10.512 18.753-27.27l.938-9.121-4.254-1.762c-2.336-.969-5.688-3.293-7.45-5.164-4.652-4.953-6.433-4.223-7.43 3.035m23.919 9.313c-.477 1.781-.875 4.957-.887 7.055-.008 2.101-1.328 7.316-2.926 11.593-3.98 10.64-1.855 13.156 7.176 8.489 6.246-3.235 8.594-9.036 8.106-20.079l-.415-9.445-5.093-.426c-4.305-.36-5.227.075-5.961 2.813"/></svg>